<svg width="1122" height="378" viewBox="0 0 1122 378" fill="none" xmlns="http://www.w3.org/2000/svg">
<path d="M186.375 13.6298C205.305 12.923 225.139 13.7674 244.166 13.4826C244.585 14.0519 244.861 14.292 244.878 14.9951C251.792 35.3353 259.521 55.3399 266.398 75.8883C270.978 89.7872 275.665 103.651 280.459 117.478C282.227 122.566 284.856 130.908 286.855 135.66C273.521 139.564 261.8 143.576 249.634 150.645C243.817 154.025 238.579 157.876 232.801 161.226C226.436 143.057 223.112 122.715 217.239 104.267C216.443 101.768 215.539 99.0947 214.843 96.5873C213.596 100.37 209.482 113.327 207.82 116.22C203.823 129.112 198.072 142.915 193.406 155.727C191.767 160.228 186.981 173.583 184.983 177.497C182.635 184.849 174.86 206.741 171.341 212.955C165.931 222.51 144.449 236.337 134.319 241.522C116.793 250.494 107.579 253.792 88.6426 256.564C90.0045 251.987 113.321 191.239 114.905 189.021C115.909 185.032 121.576 171.501 123.48 168.033C123.815 165.181 136.089 136.738 137.998 132.002L159.487 78.668C162.003 72.3658 168.224 55.5349 171.239 50.2907C172.636 44.5985 183.412 18.6934 186.375 13.6298Z" fill="#29AFEB"/>
<path d="M214.844 96.5874C215.469 95.6402 220.506 82.4562 221.267 80.489C226.774 66.3151 232.125 52.0807 237.319 37.7891C239.899 30.5782 243.073 22.3536 244.878 14.9951C251.792 35.3354 259.521 55.3399 266.398 75.8883C270.978 89.7872 275.665 103.651 280.459 117.478C282.227 122.566 284.856 130.908 286.855 135.661C273.521 139.564 261.8 143.576 249.635 150.645C243.817 154.025 238.579 157.876 232.801 161.227C226.436 143.057 223.112 122.715 217.239 104.267C216.443 101.768 215.539 99.0948 214.844 96.5874Z" fill="#175294"/>
<path d="M186.169 145.817C191.088 146.54 190.739 146.362 195.151 143.504L195.804 143.662C195.64 143.996 194.752 148.2 194.642 148.894C193.882 153.702 183.523 174.479 184.983 177.497C182.635 184.849 174.86 206.742 171.341 212.956C165.931 222.51 144.449 236.337 134.319 241.523C116.793 250.494 107.579 253.792 88.6426 256.564C90.0045 251.987 113.321 191.239 114.905 189.021C147.178 183.085 164.107 168.695 186.169 145.817Z" fill="#175294"/>
<path d="M123.48 168.033C123.764 172.675 117.866 181.512 116.918 186.833C116.968 186.856 117.019 186.878 117.07 186.901C131.743 185.682 155.112 172.102 165.634 163.638C176.8 155.164 185.351 144.29 194.537 133.895C196.921 131.197 206.39 116.826 207.82 116.22C203.823 129.112 198.071 142.915 193.406 155.727C191.767 160.228 186.981 173.583 184.983 177.497C183.523 174.479 193.882 153.701 194.642 148.894C194.751 148.2 195.639 143.996 195.804 143.662L195.151 143.504C190.738 146.362 191.087 146.54 186.169 145.817C164.107 168.695 147.178 183.085 114.905 189.021C115.909 185.032 121.576 171.501 123.48 168.033Z" fill="#186BB3"/>
<path d="M186.375 13.6299L188.515 14.2431L188.277 14.3882C186.019 15.7886 185.669 16.7565 184.757 19.1229L185.106 19.4459L188.396 18.3329C189.57 19.3259 189.918 20.7191 189.934 22.2557C190.002 28.7193 190.743 33.4956 185.915 38.3726C184.066 40.2415 181.848 42.8497 179.15 43.4277C177.388 42.6515 177.61 42.246 176.576 40.2821C174.598 41.3027 173.639 48.7397 171.705 50.4849L171.239 50.2908C172.636 44.5985 183.412 18.6934 186.375 13.6299Z" fill="#31C4F7"/>
<path d="M304.958 140.297C324.096 134.791 359.286 137.885 377.008 147.772C377.291 147.93 377.571 148.093 377.849 148.26C373.449 155.229 365.357 164.902 360.045 171.655L359.297 171.166L359.119 171.146C356.17 170.799 353.487 169.621 350.646 168.717C345.407 167.001 339.938 166.089 334.426 166.013C317.245 165.834 294.469 173.271 279.313 181.152C274.642 183.581 264.575 191.962 261.213 192.105C262.809 190.826 267.937 187.104 268.877 185.897C237.371 203.494 209.339 229.726 178.461 248.496C170.136 253.557 158.574 261.658 149.62 264.947C145.262 269.498 109.288 282.181 100.772 283.384C84.4486 285.69 67.1025 287.476 52.7705 277.62C45.1941 272.519 39.9764 264.596 38.2828 255.622C33.232 227.308 59.3498 205.734 82.4796 196.014C86.3222 194.399 90.4388 192.262 94.5537 191.549C80.418 200.004 67.2307 210.061 61.1358 226.099C55.522 240.87 59.1811 257.081 75.5033 262.293C94.9618 268.506 116.167 260.072 133.636 251.77C136.848 249.122 144.647 244.895 148.489 242.379C195.666 211.493 232.186 161.225 287.715 144.308C292.187 142.946 300.618 140.3 304.958 140.297Z" fill="#17896D"/>
<path d="M149.62 264.947C145.262 269.498 109.288 282.181 100.772 283.384C84.4486 285.689 67.1025 287.475 52.7705 277.62C45.1941 272.519 39.9764 264.596 38.2828 255.621C33.232 227.308 59.3498 205.734 82.4796 196.014C86.3222 194.399 90.4388 192.262 94.5537 191.549C80.418 200.003 67.2307 210.061 61.1358 226.099C55.522 240.87 59.1811 257.08 75.5033 262.292C94.9618 268.506 116.167 260.071 133.636 251.77C130.17 259.788 84.2398 269.644 76.4258 263.883C76.4204 263.879 74.4486 268.483 73.9923 268.928C70.2318 271.717 60.2604 279.414 55.871 277.9C58.1331 279.816 58.2541 280.057 61.1468 280.752C63.9792 281.433 67.2997 283.234 70.2713 283.658C75.6945 284.433 81.8063 284.176 87.287 283.596C89.7216 283.338 93.6563 283.74 95.0659 283.469C108.349 280.907 121.61 276.846 133.919 271.093C137.293 269.515 144.885 265.989 148.798 264.456C149.111 264.643 149.385 264.807 149.62 264.947Z" fill="#2A7DC1"/>
<path d="M304.958 140.297C324.097 134.791 359.286 137.885 377.009 147.772C377.291 147.93 377.571 148.093 377.849 148.26C373.449 155.229 365.357 164.902 360.045 171.655L359.297 171.166C355.95 161.653 329.363 163.802 321.178 164.194C312.334 164.618 303.842 166.932 295.646 170.192C297.08 168.95 299.681 167.427 300.994 166.578C305.015 163.978 320.13 143.307 320.512 140.501C317.583 138.087 310.679 141.132 305.173 140.33L304.958 140.297Z" fill="#09844E"/>
<path d="M399.3 166.969C410.367 178.746 415.756 197.45 415.189 213.035C413.294 265.209 363.787 291.867 316.223 289.181C276.061 286.914 255.937 274.076 234.084 241.347C249.16 227.62 265.091 212.739 279.945 198.664C279.741 209.236 280.327 214.562 285.33 224.343C302.541 257.991 363.149 255.868 377.739 220.739C383.42 205.661 379.4 196.458 371.089 183.729C375.334 180.956 379.286 178.802 383.731 176.361C388.851 173.506 394.265 170.051 399.3 166.969Z" fill="#09844E"/>
<path d="M371.088 183.73C375.334 180.957 379.285 178.802 383.73 176.361C385.518 182.314 390.139 188.364 390.21 194.676C390.312 203.874 386.817 214.838 379.144 220.507L377.738 220.74C383.419 205.661 379.399 196.458 371.088 183.73Z" fill="#006C52"/>
<path d="M261.213 192.105C264.574 191.962 274.642 183.581 279.313 181.153C294.469 173.272 317.245 165.834 334.426 166.013C339.938 166.089 345.407 167.001 350.646 168.717C353.487 169.621 356.17 170.799 359.119 171.147L359.297 171.166L360.045 171.656L355.906 176.719C331.381 170.093 312.234 172.93 290.011 185.736C275.681 194.107 262.169 203.805 249.653 214.703C200.682 257.222 162.784 310.575 92.3108 315.684C53.292 318.512 11.0716 302.726 21.9175 255.041C23.3902 248.451 31.2338 232.77 36.9012 228.856C30.1843 240.118 26.5197 249.196 29.9253 262.488C39.3032 299.091 82.9058 297.244 111.608 289.558C156.624 277.502 193.279 247.64 228.402 218.456C234.69 213.215 255.491 195.228 261.213 192.105Z" fill="#0A535E"/>
<path d="M496.146 121.253C501.683 121.436 507.633 121.357 513.205 121.381C517.678 130.082 523.791 146.414 527.748 156.071C536.005 175.874 544.395 195.621 552.919 215.311C545.925 215.134 538.4 215.304 531.367 215.337C528.951 210.218 526.036 202.081 523.884 196.621L509.913 196.632L482.381 196.594C480.089 202.958 477.614 209.254 474.961 215.475L453.014 215.199C456.184 209.283 460.448 198.552 463.213 192.104C469.786 176.88 476.199 161.588 482.453 146.229C485.459 138.875 488.906 129.882 492.532 122.687C493.1 121.56 494.787 121.52 496.146 121.253ZM487.688 181.196L504.708 181.219L518.687 181.213C514.064 169.957 507.939 151.817 503.115 141.73C498.164 154.655 493.211 168.612 487.688 181.196Z" fill="#0E2B60"/>
<path d="M383.861 140.193C372.658 133.721 364.995 129.766 353.479 124.118L353.385 123.413C356.368 120.951 432.099 109.295 444.162 106.979C437.23 133.111 430.124 159.197 422.845 185.235C417.386 177.352 412.434 169.708 406.807 161.79C404.085 163.938 402.259 165.142 399.3 166.969C394.265 170.051 388.852 173.506 383.731 176.361C379.286 178.802 375.335 180.956 371.089 183.729C360.577 188.987 346.743 197.256 336.099 203.16C342.802 192.727 348.085 186.373 355.907 176.718L360.045 171.655C365.358 164.902 373.45 155.229 377.849 148.26C379.87 146.269 382.241 142.658 383.861 140.193Z" fill="#FBCD2C"/>
<path d="M702.998 148.101C705.841 147.63 709.353 147.738 712.29 147.68C744.509 147.051 758.715 187.351 734.987 208.074C730.007 212.422 725.515 213.882 719.193 215.516C717.993 215.698 716.788 215.868 715.582 216.027C664.714 222.614 660.403 153.26 702.998 148.101ZM713.561 201.34C734.489 195.349 731.399 159.829 706.619 162.299C702.28 163.644 697.125 166.851 695.454 171.131C689.148 187.306 695.076 202.523 713.561 201.34Z" fill="#0E2B60"/>
<path d="M801.206 149.165C807.429 149.36 814.036 149.167 820.293 149.083C820.649 157.381 820.561 166.017 820.589 174.346L820.709 215.346C814.316 215.367 807.928 215.351 801.54 215.3C801.984 212.124 801.984 209.187 802.044 205.995C801.282 206.978 800.472 207.916 799.606 208.805C793.788 214.839 787.465 216.209 779.571 216.427C757.35 217.042 753.499 200.526 754.052 182.088C754.37 171.57 754.216 159.709 754.107 149.182C760.599 149.25 767.085 149.245 773.577 149.167C773.441 163.063 772.789 177.584 774.005 191.386C775.122 197.379 779.418 201.897 785.532 201.588C799.863 200.864 801.578 190.898 801.326 179.014C801.118 169.099 801.249 158.975 801.206 149.165Z" fill="#0E2B60"/>
<path d="M863.65 148.107C866.893 147.832 870.147 147.727 873.401 147.791C893.946 148.171 895.798 165.487 895.233 181.772C894.85 192.724 895.573 204.128 895.25 215.174C889.032 215.485 882.742 215.348 876.508 215.28C878.124 204.069 877.088 186.507 876.754 174.943C876.415 163.224 865.72 159.546 855.799 165.268C847.192 172.913 850.364 203.233 850.255 215.312C844.727 215.06 837.539 215.455 831.567 215.328L831.403 173.595C831.348 165.105 831.611 157.896 831.189 149.285C837.347 149.326 843.505 149.259 849.663 149.082C849.608 151.931 849.334 155.226 849.17 158.107C853.361 152.203 856.67 149.829 863.65 148.107Z" fill="#0E2B60"/>
<path d="M1027.64 149.567C1034.44 149.462 1040.96 149.353 1047.76 149.58C1051.39 154.183 1057.54 164.425 1060.97 169.836C1065.41 163.348 1068.98 156.364 1073.84 149.471C1080.83 149.397 1087.84 149.436 1094.83 149.587C1091.91 152.496 1073.26 178.519 1071.25 182.458C1073.29 185.316 1094.62 214.334 1094.75 214.846L1093.81 215.006C1089.53 215.416 1079.54 215.108 1074.81 215.081C1069.82 208.223 1065.04 201.217 1060.48 194.07C1056.99 200.406 1050.87 208.647 1046.69 215.088L1026.27 215.152C1032.09 208.648 1045.44 189.553 1050.91 181.937C1043.28 172.16 1035.41 159.89 1027.64 149.567Z" fill="#006C52"/>
<path d="M578.696 148.029C579.896 147.944 581.095 147.875 582.295 147.822C595.235 147.256 601.486 147.551 611.211 156.447C608.269 160.24 605.245 163.967 602.138 167.627C597.657 164.354 593.767 162.103 587.976 162.063C583.599 161.988 579.386 163.718 576.324 166.845C562.6 180.663 573.93 208.974 596.019 199.806C597.679 199.115 601.618 197.342 603.168 197.318L604.686 198.895C607.524 202.392 609.156 204.529 611.611 208.346C598.944 218.468 578.729 219.521 565.328 210.362C558.168 205.37 553.292 197.735 551.769 189.142C548.191 169.912 558.957 151.569 578.696 148.029Z" fill="#0E2B60"/>
<path d="M640.483 148.075C640.631 148.058 640.779 148.042 640.921 148.026C654.519 146.626 662.474 147.755 672.938 156.288C670.385 159.7 666.369 164.153 663.52 167.485C624.803 141.574 618.75 219.698 664.55 197.23C664.78 197.118 665.876 198.688 666.117 198.996C668.5 202.249 670.56 205.102 672.735 208.518C668.379 212.151 663.175 214.626 657.609 215.712C606.269 225.716 597.356 156.016 640.483 148.075Z" fill="#0E2B60"/>
<path d="M927.091 130.375L927.562 130.44C928.438 131.561 928.175 146.823 928.181 149.518C934.278 149.276 940.409 149.391 946.512 149.449C946.337 153.549 946.518 158.841 946.561 163.029C940.398 163.095 934.235 163.069 928.071 162.953C928.088 164.365 927.962 166.293 928.066 167.656C929.025 180.257 921.87 212.246 946.523 198.508L946.578 214.294C944.693 214.778 942.655 215.219 940.749 215.664C928.756 216.979 912.797 216.338 910.65 201.918C908.962 190.609 909.943 174.565 910.069 162.932L900.104 163.181C900.317 158.501 900.241 153.894 900.202 149.213C903.204 149.415 906.831 149.4 909.888 149.467C910.047 144.777 909.905 140.034 909.822 135.339C915.104 134.319 922.029 132.152 927.091 130.375Z" fill="#006C52"/>
<path d="M986.241 148.64C990.065 148.322 992.744 148.386 996.541 148.492C996.552 154.237 996.24 160.222 996.174 166.03C966.585 158.565 972.852 196.936 972.94 215.388C966.963 215.175 961.846 215.179 955.863 215.328L954.735 215.173C954.121 214.07 954.307 155.161 954.302 149.53C960.23 149.386 966.415 149.431 972.37 149.385L972.408 159.724C976.413 153.27 979.256 151.096 986.241 148.64Z" fill="#006C52"/>
<path d="M1002.11 149.425L1020.86 149.397L1020.84 214.396L1020.81 214.765C1019.45 215.558 1004.87 215.217 1002.19 215.207L1002.11 149.425Z" fill="#006C52"/>
<path d="M440.085 352.512C435.931 352.9 430.233 352.16 427.721 348.375L428.132 347.924C431.617 347.746 432.545 350.057 437.224 350.281L437.429 350.289L439.088 350.614L440.085 352.512Z" fill="#020202"/>
<path d="M1007.93 119.536C1010.13 119.417 1013.6 119.089 1015.55 120.081C1024.74 124.759 1024.27 135.284 1014.66 138.893C1009.55 140.303 1004.18 139.197 1001.65 134.084C1000.43 131.632 1000.27 128.792 1001.19 126.215C1002.43 122.666 1004.75 121.049 1007.93 119.536Z" fill="#006C52"/>
</svg>
